<svg width="256" height="256" viewBox="0 0 256 256" fill="none" xmlns="http://www.w3.org/2000/svg">
<rect width="256" height="256" fill="#E8EAFA"/>
<path d="M65.5 28C51.7109 28 40.5 39.2109 40.5 53V203C40.5 216.789 51.7109 228 65.5 228H178C191.789 228 203 216.789 203 203V53C203 39.2109 191.789 28 178 28H65.5ZM109.25 140.5H134.25C151.516 140.5 165.5 154.484 165.5 171.75C165.5 175.188 162.688 178 159.25 178H84.25C80.8125 178 78 175.188 78 171.75C78 154.484 91.9844 140.5 109.25 140.5ZM96.75 103C96.75 96.3696 99.3839 90.0107 104.072 85.3223C108.761 80.6339 115.12 78 121.75 78C128.38 78 134.739 80.6339 139.428 85.3223C144.116 90.0107 146.75 96.3696 146.75 103C146.75 109.63 144.116 115.989 139.428 120.678C134.739 125.366 128.38 128 121.75 128C115.12 128 108.761 125.366 104.072 120.678C99.3839 115.989 96.75 109.63 96.75 103ZM228 59.25C228 55.8125 225.188 53 221.75 53C218.312 53 215.5 55.8125 215.5 59.25V84.25C215.5 87.6875 218.312 90.5 221.75 90.5C225.188 90.5 228 87.6875 228 84.25V59.25ZM221.75 103C218.312 103 215.5 105.812 215.5 109.25V134.25C215.5 137.688 218.312 140.5 221.75 140.5C225.188 140.5 228 137.688 228 134.25V109.25C228 105.812 225.188 103 221.75 103ZM228 159.25C228 155.812 225.188 153 221.75 153C218.312 153 215.5 155.812 215.5 159.25V184.25C215.5 187.688 218.312 190.5 221.75 190.5C225.188 190.5 228 187.688 228 184.25V159.25Z" fill="#404365"/>
</svg>
