<svg width="256" height="256" viewBox="0 0 256 256" fill="none" xmlns="http://www.w3.org/2000/svg">
<rect width="256" height="256" fill="#E8EAFA"/>
<g clip-path="url(#clip0_202_2)">
<path d="M159.75 78C159.75 69.712 156.458 61.7634 150.597 55.9029C144.737 50.0424 136.788 46.75 128.5 46.75C120.212 46.75 112.263 50.0424 106.403 55.9029C100.542 61.7634 97.25 69.712 97.25 78C97.25 86.288 100.542 94.2366 106.403 100.097C112.263 105.958 120.212 109.25 128.5 109.25C136.788 109.25 144.737 105.958 150.597 100.097C156.458 94.2366 159.75 86.288 159.75 78ZM78.5 78C78.5 64.7392 83.7678 52.0215 93.1447 42.6447C102.521 33.2678 115.239 28 128.5 28C141.761 28 154.479 33.2678 163.855 42.6447C173.232 52.0215 178.5 64.7392 178.5 78C178.5 91.2608 173.232 103.979 163.855 113.355C154.479 122.732 141.761 128 128.5 128C115.239 128 102.521 122.732 93.1447 113.355C83.7678 103.979 78.5 91.2608 78.5 78ZM60.2578 209.25H196.742C193.266 184.523 172.016 165.5 146.352 165.5H110.648C84.9844 165.5 63.7344 184.523 60.2578 209.25ZM41 216.398C41 177.922 72.1719 146.75 110.648 146.75H146.352C184.828 146.75 216 177.922 216 216.398C216 222.805 210.805 228 204.398 228H52.6016C46.1953 228 41 222.805 41 216.398Z" fill="#404365"/>
</g>
<defs>
<clipPath id="clip0_202_2">
<rect width="175" height="200" fill="white" transform="translate(41 28)"/>
</clipPath>
</defs>
</svg>
