<svg width="640" height="360" viewBox="0 0 640 360" fill="none" xmlns="http://www.w3.org/2000/svg">
<g clip-path="url(#clip0_302_2)">
<path d="M320 244C336.974 244 353.253 237.257 365.255 225.255C377.257 213.253 384 196.974 384 180C384 163.026 377.257 146.747 365.255 134.745C353.253 122.743 336.974 116 320 116C303.026 116 286.747 122.743 274.745 134.745C262.743 146.747 256 163.026 256 180C256 196.974 262.743 213.253 274.745 225.255C286.747 237.257 303.026 244 320 244ZM320 188C324.243 188 328.313 189.686 331.314 192.686C334.314 195.687 336 199.757 336 204C336 208.243 334.314 212.313 331.314 215.314C328.313 218.314 324.243 220 320 220C315.757 220 311.687 218.314 308.686 215.314C305.686 212.313 304 208.243 304 204C304 199.757 305.686 195.687 308.686 192.686C311.687 189.686 315.757 188 320 188ZM281.175 149.175C282.725 147.625 285.275 147.625 286.825 149.175L296 158.35L305.175 149.175C306.725 147.625 309.275 147.625 310.825 149.175C312.375 150.725 312.375 153.275 310.825 154.825L301.65 164L310.825 173.175C312.375 174.725 312.375 177.275 310.825 178.825C309.275 180.375 306.725 180.375 305.175 178.825L296 169.65L286.825 178.825C285.275 180.375 282.725 180.375 281.175 178.825C279.625 177.275 279.625 174.725 281.175 173.175L290.35 164L281.175 154.825C279.625 153.275 279.625 150.725 281.175 149.175ZM329.175 149.175C330.725 147.625 333.275 147.625 334.825 149.175L344 158.35L353.175 149.175C354.725 147.625 357.275 147.625 358.825 149.175C360.375 150.725 360.375 153.275 358.825 154.825L349.65 164L358.825 173.175C360.375 174.725 360.375 177.275 358.825 178.825C357.275 180.375 354.725 180.375 353.175 178.825L344 169.65L334.825 178.825C333.275 180.375 330.725 180.375 329.175 178.825C327.625 177.275 327.625 174.725 329.175 173.175L338.35 164L329.175 154.825C327.625 153.275 327.625 150.725 329.175 149.175Z" fill="#FDFDFD"/>
</g>
<defs>
<clipPath id="clip0_302_2">
<rect width="128" height="128" fill="white" transform="translate(256 116)"/>
</clipPath>
</defs>
</svg>
